# xmcd
#
# Track frame offsets: 
#        150
#        19518
#        35213
#        55344
#        72908
#        83870
#        95311
#        117328
#        130317
#        149246
#        162845
#        183095
#        201929
#        223406
#        237776
#        254049
#        265991
#        279864
#
# Disc length: 3960 seconds
#
# Revision: 0
# Processed by: cddbd v1.5.2PL0 Copyright (c) Steve Scherf et al.
# Submitted via: ExactAudioCopy v0.99pb5
#
DISCID=160f7612
DTITLE=Various Artist - Audiophiles Golden Voices Vol. 2 HQCD
DYEAR=2010
DGENRE=Pop
TTITLE0=Rivers Of Babylon - Boney M
TTITLE1=Tie A Yello Ribbon Round The Old Oak Tree- Dan
TTITLE2=The Poer Of Love - Jennifer Rush
TTITLE3=It Never Rain In Southern California - Albert Hammond
TTITLE4=Born Free - Andy Williams
TTITLE5=Somehere, My Love (Lara's Theme From "Doctor Zhivago") - Ray C
TTITLE5=onniff and The Singers
TTITLE6=Bridge Over Troubled ater - Simon Garfunkel
TTITLE7=Rose Garden - Lynn Anderson
TTITLE8=California Dreamin' - Jose Feliciano
TTITLE9=Oh, Pretty Woman - Roy Orbinson
TTITLE10=Un-Break My Heart - Toni Braxton
TTITLE11=I Know I Loved You - Savage Garden
TTITLE12=I'll Never Break Your Heart - Backstreet Boy
TTITLE13=(Where Do I Begin) Love Story -Andy Williams
TTITLE14=Where Have All The Flowers Gone - The Brothers Four
TTITLE15=The End Of The World - Skeeter Davis
TTITLE16=Day-O (Banana Boat Song_ - Harry Belafonte
TTITLE17=You're My Heart, You're My Soul - Modern Talking
EXTD=
EXTT0=
EXTT1=
EXTT2=
EXTT3=
EXTT4=
EXTT5=
EXTT6=
EXTT7=
EXTT8=
EXTT9=
EXTT10=
EXTT11=
EXTT12=
EXTT13=
EXTT14=
EXTT15=
EXTT16=
EXTT17=
PLAYORDER=
